<?xml version="1.0" encoding="UTF-8" standalone="no"?>
<!DOCTYPE svg PUBLIC "-//W3C//DTD SVG 1.1//EN"
 "http://www.w3.org/Graphics/SVG/1.1/DTD/svg11.dtd">
<!-- Generated by graphviz version 2.43.0 (0)
 -->
<!-- Title: PatriciaTrie Pages: 1 -->
<svg width="1915pt" height="392pt"
 viewBox="0.00 0.00 1915.20 392.00" xmlns="http://www.w3.org/2000/svg" xmlns:xlink="http://www.w3.org/1999/xlink">
<g id="graph0" class="graph" transform="scale(1 1) rotate(0) translate(4 388)">
<title>PatriciaTrie</title>
<polygon fill="white" stroke="transparent" points="-4,4 -4,-388 1911.2,-388 1911.2,4 -4,4"/>
<!-- 0x55f0860926c0 -->
<g id="node1" class="node">
<title>0x55f0860926c0</title>
<ellipse fill="none" stroke="black" cx="717.2" cy="-366" rx="27" ry="18"/>
<text text-anchor="middle" x="717.2" y="-362.3" font-family="Times,serif" font-size="14.00">::/0</text>
</g>
<!-- 0x55f086092940 -->
<g id="node2" class="node">
<title>0x55f086092940</title>
<ellipse fill="none" stroke="black" cx="673.2" cy="-279" rx="27" ry="18"/>
<text text-anchor="middle" x="673.2" y="-275.3" font-family="Times,serif" font-size="14.00">::/1</text>
</g>
<!-- 0x55f0860926c0&#45;&gt;0x55f086092940 -->
<g id="edge1" class="edge">
<title>0x55f0860926c0&#45;&gt;0x55f086092940</title>
<path fill="none" stroke="black" d="M708.19,-348.68C704.99,-342.81 701.39,-336.13 698.2,-330 694.05,-322.05 689.64,-313.32 685.7,-305.41"/>
<polygon fill="black" stroke="black" points="688.75,-303.69 681.17,-296.28 682.48,-306.8 688.75,-303.69"/>
<text text-anchor="middle" x="715.2" y="-318.8" font-family="Times,serif" font-size="14.00">0 (1)</text>
</g>
<!-- 0x55f086092700 -->
<g id="node9" class="node">
<title>0x55f086092700</title>
<ellipse fill="none" stroke="black" cx="1029.2" cy="-279" rx="44.39" ry="18"/>
<text text-anchor="middle" x="1029.2" y="-275.3" font-family="Times,serif" font-size="14.00">ffff::/16</text>
</g>
<!-- 0x55f0860926c0&#45;&gt;0x55f086092700 -->
<g id="edge8" class="edge">
<title>0x55f0860926c0&#45;&gt;0x55f086092700</title>
<path fill="none" stroke="black" d="M741.68,-358.33C793.88,-344.11 916.79,-310.62 983.76,-292.38"/>
<polygon fill="black" stroke="black" points="984.89,-295.7 993.62,-289.69 983.05,-288.95 984.89,-295.7"/>
<text text-anchor="middle" x="981.2" y="-318.8" font-family="Times,serif" font-size="14.00">1111111111111111 (16)</text>
</g>
<!-- 0x55f086092840 -->
<g id="node3" class="node">
<title>0x55f086092840</title>
<ellipse fill="none" stroke="black" cx="573.2" cy="-192" rx="27" ry="18"/>
<text text-anchor="middle" x="573.2" y="-188.3" font-family="Times,serif" font-size="14.00">::/2</text>
</g>
<!-- 0x55f086092940&#45;&gt;0x55f086092840 -->
<g id="edge2" class="edge">
<title>0x55f086092940&#45;&gt;0x55f086092840</title>
<path fill="none" stroke="black" d="M657.13,-264.34C640.87,-250.53 615.56,-229.01 596.98,-213.21"/>
<polygon fill="black" stroke="black" points="599.11,-210.43 589.22,-206.62 594.58,-215.77 599.11,-210.43"/>
<text text-anchor="middle" x="646.2" y="-231.8" font-family="Times,serif" font-size="14.00">0 (1)</text>
</g>
<!-- 0x55f086092980 -->
<g id="node8" class="node">
<title>0x55f086092980</title>
<ellipse fill="none" stroke="black" cx="673.2" cy="-192" rx="54.69" ry="18"/>
<text text-anchor="middle" x="673.2" y="-188.3" font-family="Times,serif" font-size="14.00">4000::/64</text>
</g>
<!-- 0x55f086092940&#45;&gt;0x55f086092980 -->
<g id="edge7" class="edge">
<title>0x55f086092940&#45;&gt;0x55f086092980</title>
<path fill="none" stroke="black" d="M673.2,-260.8C673.2,-249.16 673.2,-233.55 673.2,-220.24"/>
<polygon fill="black" stroke="black" points="676.7,-220.18 673.2,-210.18 669.7,-220.18 676.7,-220.18"/>
<text text-anchor="middle" x="973.7" y="-231.8" font-family="Times,serif" font-size="14.00">100000000000000000000000000000000000000000000000000000000000000 (63)</text>
</g>
<!-- 0x55f086092780 -->
<g id="node4" class="node">
<title>0x55f086092780</title>
<ellipse fill="none" stroke="black" cx="31.2" cy="-105" rx="31.4" ry="18"/>
<text text-anchor="middle" x="31.2" y="-101.3" font-family="Times,serif" font-size="14.00">::/64</text>
</g>
<!-- 0x55f086092840&#45;&gt;0x55f086092780 -->
<g id="edge3" class="edge">
<title>0x55f086092840&#45;&gt;0x55f086092780</title>
<path fill="none" stroke="black" d="M546.01,-191.37C440.73,-192.55 63.87,-194.04 28.2,-156 22.45,-149.87 21.47,-141.23 22.48,-132.87"/>
<polygon fill="black" stroke="black" points="25.92,-133.47 24.5,-122.97 19.07,-132.07 25.92,-133.47"/>
<text text-anchor="middle" x="324.2" y="-144.8" font-family="Times,serif" font-size="14.00">00000000000000000000000000000000000000000000000000000000000000 (62)</text>
</g>
<!-- 0x55f0860928c0 -->
<g id="node5" class="node">
<title>0x55f0860928c0</title>
<ellipse fill="none" stroke="black" cx="646.2" cy="-105" rx="75.29" ry="18"/>
<text text-anchor="middle" x="646.2" y="-101.3" font-family="Times,serif" font-size="14.00">2001:db8::/60</text>
</g>
<!-- 0x55f086092840&#45;&gt;0x55f0860928c0 -->
<g id="edge4" class="edge">
<title>0x55f086092840&#45;&gt;0x55f0860928c0</title>
<path fill="none" stroke="black" d="M593.87,-180.41C604.06,-174.37 615.91,-166.01 624.2,-156 629.88,-149.15 634.35,-140.6 637.73,-132.52"/>
<polygon fill="black" stroke="black" points="641.05,-133.63 641.33,-123.04 634.51,-131.15 641.05,-133.63"/>
<text text-anchor="middle" x="911.2" y="-144.8" font-family="Times,serif" font-size="14.00">1000000000000100001101101110000000000000000000000000000000 (58)</text>
</g>
<!-- 0x55f086092900 -->
<g id="node6" class="node">
<title>0x55f086092900</title>
<ellipse fill="none" stroke="black" cx="544.2" cy="-18" rx="92.88" ry="18"/>
<text text-anchor="middle" x="544.2" y="-14.3" font-family="Times,serif" font-size="14.00">2001:db8:0:1::/64</text>
</g>
<!-- 0x55f0860928c0&#45;&gt;0x55f086092900 -->
<g id="edge5" class="edge">
<title>0x55f0860928c0&#45;&gt;0x55f086092900</title>
<path fill="none" stroke="black" d="M626.53,-87.61C611.11,-74.76 589.44,-56.71 572.21,-42.34"/>
<polygon fill="black" stroke="black" points="574.07,-39.34 564.15,-35.63 569.59,-44.72 574.07,-39.34"/>
<text text-anchor="middle" x="632.7" y="-57.8" font-family="Times,serif" font-size="14.00">0001 (4)</text>
</g>
<!-- 0x55f086092880 -->
<g id="node7" class="node">
<title>0x55f086092880</title>
<ellipse fill="none" stroke="black" cx="748.2" cy="-18" rx="92.88" ry="18"/>
<text text-anchor="middle" x="748.2" y="-14.3" font-family="Times,serif" font-size="14.00">2001:db8:0:9::/64</text>
</g>
<!-- 0x55f0860928c0&#45;&gt;0x55f086092880 -->
<g id="edge6" class="edge">
<title>0x55f0860928c0&#45;&gt;0x55f086092880</title>
<path fill="none" stroke="black" d="M665.86,-87.61C681.29,-74.76 702.95,-56.71 720.18,-42.34"/>
<polygon fill="black" stroke="black" points="722.8,-44.72 728.24,-35.63 718.32,-39.34 722.8,-44.72"/>
<text text-anchor="middle" x="734.7" y="-57.8" font-family="Times,serif" font-size="14.00">1001 (4)</text>
</g>
<!-- 0x55f086092740 -->
<g id="node10" class="node">
<title>0x55f086092740</title>
<ellipse fill="none" stroke="black" cx="1297.2" cy="-192" rx="59.59" ry="18"/>
<text text-anchor="middle" x="1297.2" y="-188.3" font-family="Times,serif" font-size="14.00">ffff:ffff::/32</text>
</g>
<!-- 0x55f086092700&#45;&gt;0x55f086092740 -->
<g id="edge9" class="edge">
<title>0x55f086092700&#45;&gt;0x55f086092740</title>
<path fill="none" stroke="black" d="M1073.19,-276.78C1135.21,-274.23 1244.26,-266.46 1275.2,-243 1282.77,-237.25 1287.79,-228.34 1291.09,-219.62"/>
<polygon fill="black" stroke="black" points="1294.44,-220.63 1294.13,-210.04 1287.77,-218.51 1294.44,-220.63"/>
<text text-anchor="middle" x="1376.2" y="-231.8" font-family="Times,serif" font-size="14.00">1111111111111111 (16)</text>
</g>
<!-- 0x55f0860927c0 -->
<g id="node11" class="node">
<title>0x55f0860927c0</title>
<ellipse fill="none" stroke="black" cx="1297.2" cy="-105" rx="90.98" ry="18"/>
<text text-anchor="middle" x="1297.2" y="-101.3" font-family="Times,serif" font-size="14.00">ffff:ffff:ffff:ffff::/64</text>
</g>
<!-- 0x55f086092740&#45;&gt;0x55f0860927c0 -->
<g id="edge10" class="edge">
<title>0x55f086092740&#45;&gt;0x55f0860927c0</title>
<path fill="none" stroke="black" d="M1297.2,-173.8C1297.2,-162.16 1297.2,-146.55 1297.2,-133.24"/>
<polygon fill="black" stroke="black" points="1300.7,-133.18 1297.2,-123.18 1293.7,-133.18 1300.7,-133.18"/>
<text text-anchor="middle" x="1458.2" y="-144.8" font-family="Times,serif" font-size="14.00">11111111111111111111111111111111 (32)</text>
</g>
<!-- 0x55f086092800 -->
<g id="node12" class="node">
<title>0x55f086092800</title>
<ellipse fill="none" stroke="black" cx="1297.2" cy="-18" rx="96.68" ry="18"/>
<text text-anchor="middle" x="1297.2" y="-14.3" font-family="Times,serif" font-size="14.00">ffff:ffff:ffff:ffff::/128</text>
</g>
<!-- 0x55f0860927c0&#45;&gt;0x55f086092800 -->
<g id="edge11" class="edge">
<title>0x55f0860927c0&#45;&gt;0x55f086092800</title>
<path fill="none" stroke="black" d="M1297.2,-86.8C1297.2,-75.16 1297.2,-59.55 1297.2,-46.24"/>
<polygon fill="black" stroke="black" points="1300.7,-46.18 1297.2,-36.18 1293.7,-46.18 1300.7,-46.18"/>
<text text-anchor="middle" x="1602.2" y="-57.8" font-family="Times,serif" font-size="14.00">0000000000000000000000000000000000000000000000000000000000000000 (64)</text>
</g>
</g>
</svg>
